<svg width="46" height="46" viewBox="0 0 46 46" fill="none" xmlns="http://www.w3.org/2000/svg">
<path fill-rule="evenodd" clip-rule="evenodd" d="M23 45.4C17.0591 45.4 11.3616 43.04 7.1608 38.8392C2.95998 34.6384 0.599991 28.9408 0.599991 23C0.599991 17.0591 2.95998 11.3616 7.1608 7.16078C11.3616 2.95997 17.0591 0.599976 23 0.599976C28.9408 0.599976 34.6384 2.95997 38.8392 7.16078C43.04 11.3616 45.4 17.0591 45.4 23C45.4 28.9408 43.04 34.6384 38.8392 38.8392C34.6384 43.04 28.9408 45.4 23 45.4ZM13.9 25.1C13.343 25.1 12.8089 24.8787 12.4151 24.4849C12.0212 24.0911 11.8 23.5569 11.8 23C11.8 22.443 12.0212 21.9089 12.4151 21.5151C12.8089 21.1212 13.343 20.9 13.9 20.9H26.752L20.872 15.44C20.4636 15.0612 20.2223 14.5358 20.2013 13.9792C20.1803 13.4226 20.3813 12.8804 20.76 12.472C21.1387 12.0635 21.6642 11.8223 22.2208 11.8013C22.7774 11.7803 23.3196 11.9812 23.728 12.36L33.528 21.46C33.74 21.6566 33.9092 21.8948 34.0249 22.1598C34.1406 22.4248 34.2003 22.7108 34.2003 23C34.2003 23.2891 34.1406 23.5752 34.0249 23.8401C33.9092 24.1051 33.74 24.3434 33.528 24.54L23.728 33.64C23.3196 34.0187 22.7774 34.2197 22.2208 34.1987C21.6642 34.1777 21.1387 33.9364 20.76 33.528C20.3813 33.1195 20.1803 32.5774 20.2013 32.0208C20.2223 31.4642 20.4636 30.9387 20.872 30.56L26.752 25.1H13.9Z" fill="#0D3A5E"/>
</svg>
