<svg width="46" height="46" viewBox="0 0 46 46" fill="none" xmlns="http://www.w3.org/2000/svg">
<path fill-rule="evenodd" clip-rule="evenodd" d="M23 0.600021C28.9408 0.600021 34.6384 2.96001 38.8392 7.16083C43.04 11.3616 45.4 17.0592 45.4 23C45.4 28.9409 43.04 34.6384 38.8392 38.8392C34.6384 43.04 28.9408 45.4 23 45.4C17.0592 45.4 11.3616 43.04 7.16081 38.8392C2.95999 34.6384 0.599998 28.9409 0.599998 23C0.599998 17.0592 2.95999 11.3616 7.16081 7.16083C11.3616 2.96001 17.0592 0.600021 23 0.600021ZM32.1 20.9C32.657 20.9 33.1911 21.1213 33.5849 21.5151C33.9788 21.9089 34.2 22.4431 34.2 23C34.2 23.557 33.9788 24.0911 33.5849 24.4849C33.1911 24.8788 32.657 25.1 32.1 25.1H19.248L25.128 30.56C25.5364 30.9388 25.7777 31.4642 25.7987 32.0208C25.8197 32.5774 25.6187 33.1196 25.24 33.528C24.8613 33.9365 24.3358 34.1777 23.7792 34.1987C23.2226 34.2197 22.6804 34.0188 22.272 33.64L12.472 24.54C12.26 24.3434 12.0908 24.1052 11.9751 23.8402C11.8594 23.5752 11.7997 23.2892 11.7997 23C11.7997 22.7109 11.8594 22.4248 11.9751 22.1599C12.0908 21.8949 12.26 21.6566 12.472 21.46L22.272 12.36C22.6804 11.9813 23.2226 11.7803 23.7792 11.8013C24.3358 11.8223 24.8613 12.0636 25.24 12.472C25.6187 12.8805 25.8197 13.4226 25.7987 13.9792C25.7777 14.5358 25.5364 15.0613 25.128 15.44L19.248 20.9H32.1Z" fill="#0D3A5E"/>
</svg>
